<mxfile host="app.diagrams.net" agent="Mozilla/5.0 (Windows NT 10.0; Win64; x64) AppleWebKit/537.36 (KHTML, like Gecko) Chrome/131.0.0.0 Safari/537.36" version="24.8.8">
  <diagram name="Страница — 1" id="SlmRku-6DKmTSTyX6UZ8">
    <mxGraphModel dx="1221" dy="647" grid="0" gridSize="10" guides="1" tooltips="1" connect="1" arrows="1" fold="1" page="0" pageScale="1" pageWidth="827" pageHeight="1169" math="0" shadow="0">
      <root>
        <mxCell id="0" />
        <mxCell id="1" parent="0" />
        <mxCell id="oB2pOMmZVYsnOqieclWf-8" style="edgeStyle=orthogonalEdgeStyle;rounded=0;orthogonalLoop=1;jettySize=auto;html=1;entryX=0.5;entryY=0;entryDx=0;entryDy=0;" edge="1" parent="1" source="oB2pOMmZVYsnOqieclWf-1" target="oB2pOMmZVYsnOqieclWf-4">
          <mxGeometry relative="1" as="geometry" />
        </mxCell>
        <mxCell id="oB2pOMmZVYsnOqieclWf-13" style="edgeStyle=orthogonalEdgeStyle;rounded=0;orthogonalLoop=1;jettySize=auto;html=1;entryX=0.5;entryY=0;entryDx=0;entryDy=0;" edge="1" parent="1" source="oB2pOMmZVYsnOqieclWf-1" target="oB2pOMmZVYsnOqieclWf-9">
          <mxGeometry relative="1" as="geometry" />
        </mxCell>
        <mxCell id="oB2pOMmZVYsnOqieclWf-19" style="edgeStyle=orthogonalEdgeStyle;rounded=0;orthogonalLoop=1;jettySize=auto;html=1;entryX=0.5;entryY=0;entryDx=0;entryDy=0;" edge="1" parent="1" source="oB2pOMmZVYsnOqieclWf-1" target="oB2pOMmZVYsnOqieclWf-16">
          <mxGeometry relative="1" as="geometry" />
        </mxCell>
        <mxCell id="oB2pOMmZVYsnOqieclWf-22" style="edgeStyle=orthogonalEdgeStyle;rounded=0;orthogonalLoop=1;jettySize=auto;html=1;entryX=0.5;entryY=0;entryDx=0;entryDy=0;" edge="1" parent="1" source="oB2pOMmZVYsnOqieclWf-1" target="oB2pOMmZVYsnOqieclWf-20">
          <mxGeometry relative="1" as="geometry" />
        </mxCell>
        <mxCell id="oB2pOMmZVYsnOqieclWf-1" value="Система" style="rounded=0;whiteSpace=wrap;html=1;" vertex="1" parent="1">
          <mxGeometry x="333" y="69" width="120" height="60" as="geometry" />
        </mxCell>
        <mxCell id="oB2pOMmZVYsnOqieclWf-4" value="Веб-приложение" style="swimlane;fontStyle=0;childLayout=stackLayout;horizontal=1;startSize=30;horizontalStack=0;resizeParent=1;resizeParentMax=0;resizeLast=0;collapsible=1;marginBottom=0;whiteSpace=wrap;html=1;" vertex="1" parent="1">
          <mxGeometry x="19" y="181" width="140" height="90" as="geometry">
            <mxRectangle x="22" y="162" width="129" height="30" as="alternateBounds" />
          </mxGeometry>
        </mxCell>
        <mxCell id="oB2pOMmZVYsnOqieclWf-5" value="Фронтенд" style="text;strokeColor=none;fillColor=none;align=left;verticalAlign=middle;spacingLeft=4;spacingRight=4;overflow=hidden;points=[[0,0.5],[1,0.5]];portConstraint=eastwest;rotatable=0;whiteSpace=wrap;html=1;" vertex="1" parent="oB2pOMmZVYsnOqieclWf-4">
          <mxGeometry y="30" width="140" height="30" as="geometry" />
        </mxCell>
        <mxCell id="oB2pOMmZVYsnOqieclWf-6" value="Бэкенд" style="text;strokeColor=none;fillColor=none;align=left;verticalAlign=middle;spacingLeft=4;spacingRight=4;overflow=hidden;points=[[0,0.5],[1,0.5]];portConstraint=eastwest;rotatable=0;whiteSpace=wrap;html=1;" vertex="1" parent="oB2pOMmZVYsnOqieclWf-4">
          <mxGeometry y="60" width="140" height="30" as="geometry" />
        </mxCell>
        <mxCell id="oB2pOMmZVYsnOqieclWf-9" value="Пользователь" style="swimlane;fontStyle=0;childLayout=stackLayout;horizontal=1;startSize=30;horizontalStack=0;resizeParent=1;resizeParentMax=0;resizeLast=0;collapsible=1;marginBottom=0;whiteSpace=wrap;html=1;" vertex="1" parent="1">
          <mxGeometry x="201" y="181" width="140" height="70" as="geometry" />
        </mxCell>
        <mxCell id="oB2pOMmZVYsnOqieclWf-10" value="Взаимодействие с веб-приложением" style="text;strokeColor=none;fillColor=none;align=left;verticalAlign=middle;spacingLeft=4;spacingRight=4;overflow=hidden;points=[[0,0.5],[1,0.5]];portConstraint=eastwest;rotatable=0;whiteSpace=wrap;html=1;" vertex="1" parent="oB2pOMmZVYsnOqieclWf-9">
          <mxGeometry y="30" width="140" height="40" as="geometry" />
        </mxCell>
        <mxCell id="oB2pOMmZVYsnOqieclWf-16" value="База данных" style="swimlane;fontStyle=0;childLayout=stackLayout;horizontal=1;startSize=30;horizontalStack=0;resizeParent=1;resizeParentMax=0;resizeLast=0;collapsible=1;marginBottom=0;whiteSpace=wrap;html=1;" vertex="1" parent="1">
          <mxGeometry x="443" y="181" width="140" height="70" as="geometry" />
        </mxCell>
        <mxCell id="oB2pOMmZVYsnOqieclWf-17" value="Хранение информации" style="text;strokeColor=none;fillColor=none;align=left;verticalAlign=middle;spacingLeft=4;spacingRight=4;overflow=hidden;points=[[0,0.5],[1,0.5]];portConstraint=eastwest;rotatable=0;whiteSpace=wrap;html=1;" vertex="1" parent="oB2pOMmZVYsnOqieclWf-16">
          <mxGeometry y="30" width="140" height="40" as="geometry" />
        </mxCell>
        <mxCell id="oB2pOMmZVYsnOqieclWf-20" value="Внешний модуль оплаты" style="swimlane;fontStyle=0;childLayout=stackLayout;horizontal=1;startSize=30;horizontalStack=0;resizeParent=1;resizeParentMax=0;resizeLast=0;collapsible=1;marginBottom=0;whiteSpace=wrap;html=1;" vertex="1" parent="1">
          <mxGeometry x="654" y="181" width="140" height="70" as="geometry" />
        </mxCell>
        <mxCell id="oB2pOMmZVYsnOqieclWf-21" value="Контроль оплаты услуг" style="text;strokeColor=none;fillColor=none;align=left;verticalAlign=middle;spacingLeft=4;spacingRight=4;overflow=hidden;points=[[0,0.5],[1,0.5]];portConstraint=eastwest;rotatable=0;whiteSpace=wrap;html=1;" vertex="1" parent="oB2pOMmZVYsnOqieclWf-20">
          <mxGeometry y="30" width="140" height="40" as="geometry" />
        </mxCell>
      </root>
    </mxGraphModel>
  </diagram>
</mxfile>
